PathFileType	4	(X/Y/Z)	C:/Users/DISI/Documents/SIV_Franzin_Parola/Rigid-Body Object Trackig/Logs/Alza_001.trc
DataRate	CameraRate	NumFrames	NumMarkers	Units	OrigDataRate	OrigDataStartFrame	OrigNumFrames
360	360	45	25	m	360	6571	10514
Frame#	Time	Marker1			Marker2			Marker3			Marker4			Marker5			Marker6			Unlabeled 1323			Unlabeled 1324			Unlabeled 1325			Unlabeled 1326			Unlabeled 1328			Unlabeled 1329			Unlabeled 1330			Unlabeled 1331			Unlabeled 1332			Unlabeled 1333			Unlabeled 1334			Unlabeled 1335			Unlabeled 1336			Unlabeled 1337			Unlabeled 1338			Unlabeled 1340			Unlabeled 1341			Unlabeled 1342			Unlabeled 1344			
		X1	Y1	Z1	X2	Y2	Z2	X3	Y3	Z3	X4	Y4	Z4	X5	Y5	Z5	X6	Y6	Z6	X7	Y7	Z7	X8	Y8	Z8	X9	Y9	Z9	X10	Y10	Z10	X11	Y11	Z11	X12	Y12	Z12	X13	Y13	Z13	X14	Y14	Z14	X15	Y15	Z15	X16	Y16	Z16	X17	Y17	Z17	X18	Y18	Z18	X19	Y19	Z19	X20	Y20	Z20	X21	Y21	Z21	X22	Y22	Z22	X23	Y23	Z23	X24	Y24	Z24	X25	Y25	Z25
6571	18.2528																																																																											
6572	18.2556	0.144331	0.14014	0.0872189	0.0772342	0.143667	0.0838726	0.164076	0.137738	0.209038	0.0740395	0.144404	0.209913	0.161671	0.140321	0.134738	0.176808	0.138576	0.166973																																																									
6573	18.2583	0.144324	0.140146	0.0872185	0.0772399	0.143659	0.0838727	0.164076	0.137741	0.209045	0.074117	0.144265	0.20986	0.162586	0.139871	0.135117	0.176797	0.138583	0.166975																																																									
6574	18.2611																																																																											
6575	18.2639	0.144317	0.140141	0.0872203	0.077256	0.143652	0.0838597	0.164067	0.137731	0.209037	0.0741251	0.144249	0.209871	0.161692	0.140338	0.134766	0.176811	0.13857	0.166975																																																									
6576	18.2667																																																																											
6577	18.2694																																																																											
6578	18.2722	0.144312	0.140167	0.0872332	0.0772605	0.143643	0.0838688	0.164054	0.137717	0.209018	0.074039	0.144424	0.209916	0.16256	0.139896	0.135143	0.176823	0.138563	0.166987																																																									
6579	18.275	0.144324	0.140173	0.0872347	0.0772546	0.14364	0.0838476	0.164066	0.137728	0.209031	0.0741271	0.144261	0.209852	0.161694	0.140331	0.134752	0.1768	0.138583	0.166996																																																									
6580	18.2778																																																																											
6581	18.2806	0.144308	0.140173	0.0872437	0.0772542	0.143636	0.0838626	0.164073	0.137742	0.209046	0.0741314	0.144236	0.209838	0.16166	0.140334	0.134767	0.176795	0.138588	0.167004																																																									
6582	18.2833	0.144321	0.140167	0.0872377	0.0772381	0.143651	0.0838609	0.164073	0.137733	0.209034	0.0741271	0.144252	0.209856	0.162548	0.139894	0.135139	0.176793	0.1386	0.167008																																																									
6583	18.2861																																																																											
6584	18.2889	0.144327	0.140176	0.0872416	0.0772496	0.143639	0.0838518	0.164057	0.137741	0.209012	0.0741282	0.144242	0.209851	0.161654	0.140343	0.134772	0.176789	0.138609	0.167005																																																									
6585	18.2917																																																																											
6586	18.2944																																																																											
6587	18.2972	0.144324	0.14017	0.0872308	0.077263	0.143651	0.0838632	0.164063	0.137747	0.209028	0.0741166	0.14425	0.209851	0.16178	0.140234	0.134729	0.176782	0.138609	0.166998																																																									
6588	18.3																																																																											
6589	18.3028																																																																											
6590	18.3056	0.144299	0.140176	0.0872215	0.0772404	0.143673	0.0838728	0.16408	0.137752	0.20904	0.0741136	0.144272	0.209852	0.161666	0.140363	0.134778	0.176785	0.13861	0.166991																																																									
6591	18.3083	0.144315	0.140171	0.0872226	0.0772636	0.143679	0.0838696	0.16407	0.13775	0.209015	0.0741201	0.144266	0.209846	0.161649	0.140359	0.134756	0.176793	0.138598	0.16699																																																									
6592	18.3111																																																																											
6593	18.3139	0.144334	0.140169	0.0872243	0.0772664	0.143653	0.0838682	0.16408	0.137752	0.209024	0.0741204	0.144262	0.209852	0.161784	0.140235	0.134714	0.176792	0.138584	0.166979																																																									
6594	18.3167	0.144314	0.140161	0.0872219	0.0772724	0.143669	0.0838798	0.164073	0.137741	0.209017	0.07412	0.144256	0.209847	0.161661	0.140337	0.134756	0.176799	0.138591	0.166978																																																									
6595	18.3194																																																																											
6596	18.3222	0.144313	0.140164	0.0872227	0.0772587	0.143667	0.0838689	0.164075	0.137754	0.209033	0.0741173	0.144261	0.209855	0.1618	0.140251	0.134705	0.17681	0.138597	0.166983																																																									
6597	18.325																																																																											
6598	18.3278																																																																											
6599	18.3306	0.144327	0.14016	0.0872188	0.0772619	0.143668	0.0838651	0.164066	0.137723	0.209013	0.0741198	0.14425	0.209848	0.16178	0.140227	0.1347	0.176767	0.138598	0.166974																																																									
6600	18.3333	0.144316	0.140165	0.087225	0.0772676	0.14365	0.0838689	0.164065	0.137744	0.209025	0.0741205	0.144265	0.209849	0.161671	0.140365	0.134747	0.176776	0.138593	0.166979																																																									
6601	18.3361																																																																											
6602	18.3389	0.144299	0.140185	0.0872301	0.0772723	0.143653	0.0838748	0.164077	0.137744	0.209021	0.0740407	0.144442	0.209917	0.161656	0.140369	0.13474	0.176772	0.13859	0.166989																																																									
6603	18.3417	0.1443	0.140189	0.0872141	0.0772646	0.143665	0.0838661	0.164064	0.137763	0.20902	0.0741257	0.144261	0.209846	0.161644	0.140365	0.134753	0.176779	0.138591	0.166988																																																									
6604	18.3444																																																																											
6605	18.3472	0.144297	0.140182	0.0872327	0.0772462	0.143671	0.0838483	0.164065	0.137752	0.209008	0.0741174	0.144267	0.209843	0.161666	0.140385	0.134749	0.176783	0.138604	0.166974																																																									
6606	18.35	0.144303	0.140182	0.0872236	0.0772492	0.143646	0.0838616	0.164064	0.137752	0.209017	0.0741159	0.144259	0.209855	0.161631	0.140369	0.134749	0.176776	0.138623	0.166979																																																									
6607	18.3528	0.144296	0.140175	0.0872315	0.0772584	0.143642	0.0838566	0.164062	0.137749	0.209011	0.0741094	0.144241	0.209845	0.16162	0.140366	0.134771	0.17677	0.138614	0.166998																																																									
6608	18.3556	0.144307	0.140183	0.0872407	0.0772568	0.143649	0.0838548	0.164074	0.137746	0.209021	0.0740273	0.144443	0.209922	0.161669	0.140371	0.134766	0.176772	0.138603	0.166982																																																									
6609	18.3583																																																																											
6610	18.3611	0.14431	0.140174	0.0872239	0.0772456	0.143648	0.0838538	0.164072	0.13774	0.209013	0.0740305	0.144444	0.209908	0.161662	0.140366	0.134768	0.176784	0.1386	0.166993																																																									
6611	18.3639	0.144313	0.140181	0.0872207	0.0772451	0.14366	0.0838523	0.16407	0.137752	0.209021	0.0741181	0.144247	0.209839	0.161788	0.140236	0.13472	0.176784	0.13861	0.166997																																																									
6612	18.3667																																																																											
6613	18.3694	0.144312	0.140174	0.0872504	0.0772443	0.143665	0.0838564	0.164073	0.137743	0.209021	0.0741167	0.144265	0.209847	0.161798	0.140217	0.134718	0.176788	0.138603	0.166992																																																									
6614	18.3722	0.144327	0.140178	0.0872341	0.077253	0.143664	0.0838735	0.164084	0.137733	0.209016	0.0741151	0.144268	0.209854	0.161669	0.140353	0.134766	0.176793	0.1386	0.166996																																																									
6615	18.375																																																																											
